<?xml version="1.0" standalone="no"?>
<svg xmlns="http://www.w3.org/2000/svg" 
    xmlns:xlink="http://www.w3.org/1999/xlink"
    viewBox="0 0 52 52" width="52" height="52">

    <g id="ship-1">
        <path class="color" d=" M 26 43.701 C 18.097 43.099 13.15 44.424 11.146 47.663 C 9.959 38.936 11.614 34.155 16.097 33.303 L 26 33.303 L 26 43.701 Z " vector-effect="non-scaling-stroke" stroke-width="0.5" stroke="rgb(0,0,0)" stroke-linejoin="miter" stroke-linecap="square" stroke-miterlimit="3"/>
        <path class="color" d=" M 26 43.701 C 33.903 43.099 38.85 44.424 40.854 47.663 C 42.041 38.936 40.386 34.155 35.903 33.303 L 26 33.303 L 26 43.701 Z " vector-effect="non-scaling-stroke" stroke-width="0.5" stroke="rgb(0,0,0)" stroke-linejoin="miter" stroke-linecap="square" stroke-miterlimit="3"/>
        <path class="color" d=" M 26 0.624 Q 12.631 9.598 12.631 24.391 Q 12.631 39.183 26 45.682 L 26 45.682 Q 39.369 39.183 39.369 24.391 Q 39.369 9.598 26 0.624 L 26 0.624 Z " vector-effect="non-scaling-stroke" stroke-width="0.5" stroke="rgb(0,0,0)" stroke-linejoin="miter" stroke-linecap="square" stroke-miterlimit="3"/>
        <path d=" M 13.194 18.567 Q 15.373 7.757 26 0.624 L 26 0.624 Q 36.693 7.802 38.833 18.702 C 30.762 20.982 22.218 20.94 13.194 18.567 Z " fill="rgb(221,221,85)" vector-effect="non-scaling-stroke" stroke-width="0.5" stroke="rgb(0,0,0)" stroke-linejoin="miter" stroke-linecap="square" stroke-miterlimit="3"/>
        <path class="light" d=" M 26.013 0.376 Q 26.01 0.378 26.007 0.381 L 26.007 0.381 Q 15.384 7.514 13.206 18.323 L 13.206 18.323 Q 12.645 21.111 12.645 24.143 Q 12.645 38.936 26.013 45.434 L 26.013 45.434 Q 39.382 38.936 39.382 24.143 Q 39.382 9.351 26.013 0.376 L 26.013 0.376 Z  M 38.833 18.455 Q 36.694 7.558 26.007 0.381 L 26.007 0.381 Q 26.003 0.378 26 0.376 L 26 0.376 Q 15.373 7.51 13.194 18.319 C 13.198 18.321 13.202 18.322 13.206 18.323 L 13.206 18.323 C 22.226 20.692 30.765 20.733 38.833 18.455 Z " fill-rule="evenodd" fill="rgb(255,255,255)" fill-opacity="0.5" vector-effect="non-scaling-stroke" stroke-width="0.5" stroke="rgb(0,0,0)" stroke-linejoin="miter" stroke-linecap="square" stroke-miterlimit="3"/>
        <path d=" M 13.644 16.687 Q 15.71 9.283 21.989 3.712 C 24.698 3.802 27.378 3.807 30.028 3.726 Q 36.296 9.296 38.358 16.695 C 30.261 18.624 22.027 18.626 13.644 16.687 Z " fill="rgb(234,234,234)" vector-effect="non-scaling-stroke" stroke-width="0.5" stroke="rgb(0,0,0)" stroke-linejoin="miter" stroke-linecap="square" stroke-miterlimit="3"/>
        <path class="color" d=" M 26 51.624 C 24.267 46.971 21.969 38.478 22.57 36.943 C 23.085 35.538 24.234 34.824 26 34.789 L 26 34.789 C 27.766 34.824 28.915 35.538 29.43 36.943 C 30.031 38.478 27.733 46.971 26 51.624 L 26 51.624 Z " vector-effect="non-scaling-stroke" stroke-width="0.5" stroke="rgb(0,0,0)" stroke-linejoin="miter" stroke-linecap="square" stroke-miterlimit="3"/>
        <path d=" M 21.049 27.857 C 21.049 25.124 23.267 22.905 26 22.905 C 28.733 22.905 30.951 25.124 30.951 27.857 C 30.951 30.59 28.733 32.808 26 32.808 C 23.267 32.808 21.049 30.59 21.049 27.857 Z " fill="rgb(235,235,235)" vector-effect="non-scaling-stroke" stroke-width="0.5" stroke="rgb(0,0,0)" stroke-linejoin="miter" stroke-linecap="square" stroke-miterlimit="3"/>
        <path d=" M 21.972 27.857 C 21.972 25.634 23.777 23.828 26 23.828 C 28.223 23.828 30.028 25.634 30.028 27.857 C 30.028 30.08 28.223 31.885 26 31.885 C 23.777 31.885 21.972 30.08 21.972 27.857 Z " fill="rgb(100,100,100)" vector-effect="non-scaling-stroke" stroke-width="0.5" stroke="rgb(0,0,0)" stroke-linejoin="miter" stroke-linecap="square" stroke-miterlimit="3"/>
    </g>
    <g id="ship-2">
        <path d=" M 18.975 44.821 L 22.758 44.821 L 23.839 50.767 C 21.794 51.739 19.823 51.75 17.894 50.767 L 18.975 44.821 Z " fill="rgb(104,102,102)" vector-effect="non-scaling-stroke" stroke-width="0.5" stroke="rgb(0,0,0)" stroke-linejoin="miter" stroke-linecap="square" stroke-miterlimit="3"/>
        <path d=" M 17.894 42.659 L 34.109 42.659 L 34.109 45.362 L 17.894 45.362 L 17.894 42.659 Z " fill="rgb(235,235,235)"/>
        <path d=" M 29.245 44.821 L 33.028 44.821 L 34.109 50.767 C 32.064 51.739 30.093 51.75 28.163 50.767 L 29.245 44.821 Z " fill="rgb(104,102,102)" vector-effect="non-scaling-stroke" stroke-width="0.5" stroke="rgb(0,0,0)" stroke-linejoin="miter" stroke-linecap="square" stroke-miterlimit="3"/>
        <path class="color" d=" M 16.811 17.796 L 26 17.796 L 26 38.335 C 12.408 36.727 5.386 37.813 4.92 41.578 C 0.651 25.498 4.62 18.657 16.811 17.796 Z " vector-effect="non-scaling-stroke" stroke-width="0.5" stroke="rgb(0,0,0)" stroke-linejoin="miter" stroke-linecap="square" stroke-miterlimit="3"/>
        <path class="color" d=" M 47.08 41.578 C 46.614 37.813 39.592 36.727 26 38.335 L 26 17.796 L 35.189 17.796 C 47.38 18.657 51.349 25.498 47.08 41.578 Z " vector-effect="non-scaling-stroke" stroke-width="0.5" stroke="rgb(0,0,0)" stroke-linejoin="miter" stroke-linecap="square" stroke-miterlimit="3"/>
        <path d=" M 23.568 4.013 C 23.568 2.074 24.658 0.5 26 0.5 C 27.342 0.5 28.432 2.074 28.432 4.013 C 28.432 5.952 27.342 7.527 26 7.527 C 24.658 7.527 23.568 5.952 23.568 4.013 Z " fill="rgb(232,232,232)" vector-effect="non-scaling-stroke" stroke-width="0.5" stroke="rgb(0,0,0)" stroke-linejoin="miter" stroke-linecap="square" stroke-miterlimit="3"/>
        <path d=" M 26 47.524 C 30.78 47.524 34.829 46.759 38.082 44.821 Q 41.593 32.465 41.065 25.363 C 40.538 18.261 39.735 14.443 36.984 10.229 Q 34.233 6.015 26 3.743 L 26 3.743 Q 17.767 6.015 15.016 10.229 C 12.265 14.443 11.462 18.261 10.935 25.363 Q 10.407 32.465 13.918 44.821 C 17.171 46.759 21.22 47.524 26 47.524 Z " fill="rgb(232,232,232)" vector-effect="non-scaling-stroke" stroke-width="0.5" stroke="rgb(0,0,0)" stroke-linejoin="miter" stroke-linecap="square" stroke-miterlimit="3"/>
        <path d=" M 18.433 22.39 C 18.433 18.214 21.824 14.823 26 14.823 C 30.176 14.823 33.567 18.214 33.567 22.39 C 33.567 26.567 30.176 29.958 26 29.958 C 21.824 29.958 18.433 26.567 18.433 22.39 Z " fill="rgb(235,235,235)" vector-effect="non-scaling-stroke" stroke-width="0.5" stroke="rgb(0,0,0)" stroke-linejoin="miter" stroke-linecap="square" stroke-miterlimit="3"/>
        <path d=" M 19.786 22.39 C 19.786 18.96 22.571 16.175 26.001 16.175 C 29.432 16.175 32.217 18.96 32.217 22.39 C 32.217 25.821 29.432 28.606 26.001 28.606 C 22.571 28.606 19.786 25.821 19.786 22.39 Z " fill="rgb(132,131,131)" vector-effect="non-scaling-stroke" stroke-width="0.5" stroke="rgb(0,0,0)" stroke-linejoin="miter" stroke-linecap="square" stroke-miterlimit="3"/>
        <path class="color" d=" M 37.317 10.753 C 37.209 10.579 37.098 10.404 36.984 10.229 Q 34.233 6.015 26 3.743 L 26 3.743 Q 17.767 6.015 15.016 10.229 C 14.899 10.408 14.786 10.586 14.676 10.764 C 22.138 13.048 29.681 13.041 37.317 10.753 Z " vector-effect="non-scaling-stroke" stroke-width="0.5" stroke="rgb(0,0,0)" stroke-linejoin="miter" stroke-linecap="square" stroke-miterlimit="3"/>
        <path d=" M 40.98 30.548 Q 40.449 36.49 38.082 44.821 C 34.829 46.759 30.78 47.524 26 47.524 C 21.22 47.524 17.171 46.759 13.918 44.821 Q 11.557 36.513 11.023 30.581 C 20.523 33.17 30.513 33.163 40.98 30.548 Z " fill="rgb(221,221,85)" vector-effect="non-scaling-stroke" stroke-width="0.5" stroke="rgb(0,0,0)" stroke-linejoin="miter" stroke-linecap="square" stroke-miterlimit="3"/>
        <path class="color" d=" M 40.678 33.14 Q 39.954 38.234 38.082 44.821 C 34.829 46.759 30.78 47.524 26 47.524 C 21.22 47.524 17.171 46.759 13.918 44.821 Q 12.048 38.239 11.323 33.147 C 20.968 35.835 30.763 35.842 40.678 33.14 Z "/>
        <path class="light" d=" M 40.678 33.14 Q 39.954 38.234 38.082 44.821 C 34.829 46.759 30.78 47.524 26 47.524 C 21.22 47.524 17.171 46.759 13.918 44.821 Q 12.048 38.239 11.323 33.147 C 20.968 35.835 30.763 35.842 40.678 33.14 Z " fill="rgb(255,255,255)" fill-opacity="0.5" vector-effect="non-scaling-stroke" stroke-width="0.5" stroke="rgb(0,0,0)" stroke-linejoin="miter" stroke-linecap="square" stroke-miterlimit="3"/>
    </g>
    <g id="ship-3">
        <path d=" M 26.002 29.643 L 26.002 29.643 L 21.121 29.643 L 11.429 37.449 L 11.429 44.735 L 20.861 41.612 L 26 41.612 L 26 41.612 L 31.141 41.612 L 40.573 44.735 L 40.573 37.449 L 30.88 29.643 L 26.002 29.643 Z " fill="rgb(235,235,235)" vector-effect="non-scaling-stroke" stroke-width="0.5" stroke="rgb(0,0,0)" stroke-linejoin="miter" stroke-linecap="square" stroke-miterlimit="3"/>
        <path d=" M 20.796 42.133 L 31.204 42.133 L 32.245 50.752 C 29.166 51.747 23.62 51.752 19.755 50.752 L 20.796 42.133 Z " fill="rgb(235,235,235)" vector-effect="non-scaling-stroke" stroke-width="0.5" stroke="rgb(0,0,0)" stroke-linejoin="miter" stroke-linecap="square" stroke-miterlimit="3"/>
        <path class="color" d=" M 26 0.5 L 26 0.5 C 12.436 4.412 12.261 18.279 18.559 44.214 L 26 44.214 L 26 44.214 L 33.441 44.214 C 39.739 18.279 39.564 4.412 26 0.5 Z "/>
        <path class="light" d=" M 26 0.5 L 26 0.5 C 12.436 4.412 12.261 18.279 18.559 44.214 L 26 44.214 L 26 44.214 L 33.441 44.214 C 39.739 18.279 39.564 4.412 26 0.5 Z " fill="rgb(255,255,255)" fill-opacity="0.5" vector-effect="non-scaling-stroke" stroke-width="0.5" stroke="rgb(0,0,0)" stroke-linejoin="miter" stroke-linecap="square" stroke-miterlimit="3"/>
        <path d=" M 16.372 8.389 C 18.13 4.471 21.241 1.872 26 0.5 L 26 0.5 C 30.762 1.873 33.874 4.474 35.631 8.396 C 29.15 6.98 22.734 6.98 16.372 8.389 Z " fill="rgb(235,235,235)" vector-effect="non-scaling-stroke" stroke-width="0.5" stroke="rgb(0,0,0)" stroke-linejoin="miter" stroke-linecap="square" stroke-miterlimit="3"/>
        <path d=" M 19.679 18.116 C 19.679 14.627 22.512 11.794 26.002 11.794 C 29.491 11.794 32.324 14.627 32.324 18.116 C 32.324 21.606 29.491 24.439 26.002 24.439 C 22.512 24.439 19.679 21.606 19.679 18.116 Z " fill="rgb(235,235,235)" vector-effect="non-scaling-stroke" stroke-width="0.5" stroke="rgb(0,0,0)" stroke-linejoin="miter" stroke-linecap="square" stroke-miterlimit="3"/>
        <path d=" M 20.718 18.116 C 20.718 15.201 23.085 12.835 26 12.835 C 28.915 12.835 31.282 15.201 31.282 18.116 C 31.282 21.031 28.915 23.398 26 23.398 C 23.085 23.398 20.718 21.031 20.718 18.116 Z " fill="rgb(100,100,100)" vector-effect="non-scaling-stroke" stroke-width="0.5" stroke="rgb(0,0,0)" stroke-linejoin="miter" stroke-linecap="square" stroke-miterlimit="3"/>
        <path class="color" d=" M 9.487 34.848 C 10.116 33.352 10.654 32.739 11.343 32.766 C 12.008 32.793 12.547 33.354 13.13 34.848 Q 13.713 36.341 11.569 48.899 C 11.395 49.246 11.227 49.251 11.048 48.899 Q 8.858 36.344 9.487 34.848 Z " vector-effect="non-scaling-stroke" stroke-width="0.5" stroke="rgb(0,0,0)" stroke-linejoin="miter" stroke-linecap="square" stroke-miterlimit="3"/>
        <path class="color" d=" M 38.886 34.848 C 39.514 33.352 40.053 32.739 40.742 32.766 C 41.406 32.793 41.946 33.354 42.528 34.848 Q 43.111 36.341 40.967 48.899 C 40.794 49.246 40.626 49.251 40.447 48.899 Q 38.257 36.344 38.886 34.848 Z " vector-effect="non-scaling-stroke" stroke-width="0.5" stroke="rgb(0,0,0)" stroke-linejoin="miter" stroke-linecap="square" stroke-miterlimit="3"/>
        <path class="color" d=" M 24.186 36.147 C 24.815 34.651 25.353 34.038 26.042 34.065 C 26.707 34.092 27.246 34.653 27.829 36.147 Q 28.412 37.64 26.268 50.198 C 26.095 50.545 25.926 50.55 25.748 50.198 Q 23.558 37.643 24.186 36.147 Z " vector-effect="non-scaling-stroke" stroke-width="0.5" stroke="rgb(0,0,0)" stroke-linejoin="miter" stroke-linecap="square" stroke-miterlimit="3"/>
    </g>
    <g id="ship-4">
        <path d=" M 25.258 44.005 L 26.742 44.005 L 28.225 49.443 C 26.752 50.206 25.274 50.211 23.775 49.443 L 25.258 44.005 Z " fill="rgb(87,87,87)" vector-effect="non-scaling-stroke" stroke-width="0.5" stroke="rgb(0,0,0)" stroke-linejoin="miter" stroke-linecap="square" stroke-miterlimit="3"/>
        <path d=" M 21.551 45.488 L 23.034 45.488 L 24.517 50.926 C 23.044 51.689 21.566 51.694 20.067 50.926 L 21.551 45.488 Z " fill="rgb(87,87,87)" vector-effect="non-scaling-stroke" stroke-width="0.5" stroke="rgb(0,0,0)" stroke-linejoin="miter" stroke-linecap="square" stroke-miterlimit="3"/>
        <path d=" M 28.966 45.488 L 30.449 45.488 L 31.933 50.926 C 30.46 51.689 28.982 51.694 27.483 50.926 L 28.966 45.488 Z " fill="rgb(87,87,87)" vector-effect="non-scaling-stroke" stroke-width="0.5" stroke="rgb(0,0,0)" stroke-linejoin="miter" stroke-linecap="square" stroke-miterlimit="3"/>
        <path class="color" d=" M 14.135 34.118 C 16.44 30.528 20.4 28.555 26 28.185 L 26 38.073 L 12.157 50.432 C 12.169 42.339 11.83 37.707 14.135 34.118 Z " vector-effect="non-scaling-stroke" stroke-width="0.5" stroke="rgb(0,0,0)" stroke-linejoin="miter" stroke-linecap="square" stroke-miterlimit="3"/>
        <path class="color" d=" M 37.865 34.118 C 35.56 30.528 31.6 28.555 26 28.185 L 26 38.073 L 39.843 50.432 C 39.831 42.339 40.17 37.707 37.865 34.118 Z " vector-effect="non-scaling-stroke" stroke-width="0.5" stroke="rgb(0,0,0)" stroke-linejoin="miter" stroke-linecap="square" stroke-miterlimit="3"/>
        <path d=" M 26 13.354 L 18.615 13.354 C 18.431 21.637 19.076 32.509 20.565 45.983 C 21.615 46.664 23.422 46.989 26 46.971 L 26 46.971 C 28.578 46.989 30.385 46.664 31.435 45.983 C 32.924 32.509 33.569 21.637 33.385 13.354 L 26 13.354 Z " fill="rgb(235,235,235)" vector-effect="non-scaling-stroke" stroke-width="0.5" stroke="rgb(0,0,0)" stroke-linejoin="miter" stroke-linecap="square" stroke-miterlimit="3"/>
        <path class="color" d=" M 26 0.5 L 26 0.5 C 20.989 5.045 17.688 9.984 16.112 15.331 C 17.836 16.421 21.127 17.899 26 17.803 L 26 17.803 C 30.873 17.899 34.164 16.421 35.888 15.331 C 34.312 9.984 31.011 5.045 26 0.5 Z " vector-effect="non-scaling-stroke" stroke-width="0.5" stroke="rgb(0,0,0)" stroke-linejoin="miter" stroke-linecap="square" stroke-miterlimit="3"/>
    </g>
    <g id="ship-5">
        <path class="color" d=" M 26 51.5 L 26 51.5 C 22.105 51.5 19.798 50.709 18.091 49.855 Q 15.537 18.231 17.597 10.919 Q 19.656 3.608 26 0.5 L 26 0.5 Q 32.344 3.608 34.403 10.919 Q 36.463 18.231 33.909 49.855 C 32.202 50.709 29.895 51.5 26 51.5 Z " vector-effect="non-scaling-stroke" stroke-width="0.5" stroke="rgb(0,0,0)" stroke-linejoin="miter" stroke-linecap="square" stroke-miterlimit="3"/>
        <path d=" M 16.702 19.795 Q 16.73 18.393 16.792 17.169 C 23.061 18.105 29.205 18.123 35.21 17.207 Q 35.273 18.459 35.3 19.895 C 29.567 20.709 23.375 20.683 16.702 19.795 Z " fill="rgb(230,230,230)" vector-effect="non-scaling-stroke" stroke-width="0.5" stroke="rgb(0,0,0)" stroke-linejoin="miter" stroke-linecap="square" stroke-miterlimit="3"/>
        <path d=" M 17.232 37.808 Q 17.563 43.311 18.091 49.855 C 19.798 50.709 22.105 51.5 26 51.5 L 26 51.5 C 29.895 51.5 32.202 50.709 33.909 49.855 Q 34.436 43.322 34.767 37.826 C 28.998 38.879 23.146 38.866 17.232 37.808 Z " fill="rgb(230,230,230)" vector-effect="non-scaling-stroke" stroke-width="0.5" stroke="rgb(0,0,0)" stroke-linejoin="miter" stroke-linecap="square" stroke-miterlimit="3"/>
        <path d=" M 33.952 31.21 C 36.18 30.244 38.201 30.255 39.984 31.21 L 38.095 47.113 C 37.828 47.899 36.112 47.911 35.841 47.113 L 33.952 31.21 Z " fill="rgb(235,235,235)" vector-effect="non-scaling-stroke" stroke-width="0.5" stroke="rgb(0,0,0)" stroke-linejoin="miter" stroke-linecap="square" stroke-miterlimit="3"/>
        <path d=" M 12.016 31.21 C 14.244 30.244 16.266 30.255 18.048 31.21 L 16.159 47.113 C 15.893 47.899 14.176 47.911 13.905 47.113 L 12.016 31.21 Z " fill="rgb(235,235,235)" vector-effect="non-scaling-stroke" stroke-width="0.5" stroke="rgb(0,0,0)" stroke-linejoin="miter" stroke-linecap="square" stroke-miterlimit="3"/>
        <path d=" M 36.968 25.177 C 38.552 26.386 39.564 29.133 39.984 31.21 C 38.001 31.758 35.997 31.764 33.952 31.21 C 34.38 29.062 35.392 26.326 36.968 25.177 Z " fill="rgb(87,87,87)" vector-effect="non-scaling-stroke" stroke-width="0.5" stroke="rgb(0,0,0)" stroke-linejoin="miter" stroke-linecap="square" stroke-miterlimit="3"/>
        <path d=" M 15.032 25.177 C 16.617 26.386 17.629 29.133 18.048 31.21 C 16.066 31.758 14.062 31.764 12.016 31.21 C 12.445 29.062 13.457 26.326 15.032 25.177 Z " fill="rgb(87,87,87)" vector-effect="non-scaling-stroke" stroke-width="0.5" stroke="rgb(0,0,0)" stroke-linejoin="miter" stroke-linecap="square" stroke-miterlimit="3"/>
        <path d=" M 22.984 31.21 C 25.212 30.244 27.234 30.255 29.016 31.21 L 27.127 47.113 C 26.86 47.899 25.144 47.911 24.873 47.113 L 22.984 31.21 Z " fill="rgb(235,235,235)" vector-effect="non-scaling-stroke" stroke-width="0.5" stroke="rgb(0,0,0)" stroke-linejoin="miter" stroke-linecap="square" stroke-miterlimit="3"/>
        <path d=" M 26 25.177 C 27.584 26.386 28.596 29.133 29.016 31.21 C 27.033 31.758 25.029 31.764 22.984 31.21 C 23.413 29.062 24.425 26.326 26 25.177 Z " fill="rgb(87,87,87)" vector-effect="non-scaling-stroke" stroke-width="0.5" stroke="rgb(0,0,0)" stroke-linejoin="miter" stroke-linecap="square" stroke-miterlimit="3"/>
    </g>
    <g id="ship-6">
        <path d=" M 25.34 2.343 L 26.691 2.343 L 26.691 10.944 L 25.34 10.944 L 25.34 2.343 Z " fill="rgb(0,0,0)"/>
        <path d=" M 13.787 36.291 Q 17.566 31.355 26 33.065 L 26 42.743 Q 20.758 41.245 18.742 42.743 C 16.725 44.241 16.725 51.384 15.17 51.499 C 13.615 51.614 10.965 39.978 13.787 36.291 Z " fill="rgb(235,235,235)" vector-effect="non-scaling-stroke" stroke-width="0.5" stroke="rgb(0,0,0)" stroke-linejoin="miter" stroke-linecap="square" stroke-miterlimit="3"/>
        <path d=" M 38.213 36.291 Q 34.434 31.355 26 33.065 L 26 42.743 Q 31.242 41.245 33.258 42.743 C 35.275 44.241 35.275 51.384 36.83 51.499 C 38.385 51.614 41.035 39.978 38.213 36.291 Z " fill="rgb(235,235,235)" vector-effect="non-scaling-stroke" stroke-width="0.5" stroke="rgb(0,0,0)" stroke-linejoin="miter" stroke-linecap="square" stroke-miterlimit="3"/>
        <path d=" M 30.002 46.891 C 33.649 42.292 35.447 31.703 35.447 23.387 Q 35.447 12.45 26 9.101 Q 16.553 12.45 16.553 23.387 C 16.553 31.703 18.351 42.292 21.998 46.891 L 30.002 46.891 Z " fill="rgb(235,235,235)" vector-effect="non-scaling-stroke" stroke-width="0.5" stroke="rgb(0,0,0)" stroke-linejoin="miter" stroke-linecap="square" stroke-miterlimit="3"/>
        <path d=" M 21.391 25.231 C 21.391 22.687 23.456 20.622 26 20.622 C 28.544 20.622 30.609 22.687 30.609 25.231 C 30.609 27.774 28.544 29.839 26 29.839 C 23.456 29.839 21.391 27.774 21.391 25.231 Z " fill="rgb(235,235,235)" vector-effect="non-scaling-stroke" stroke-width="0.5" stroke="rgb(0,0,0)" stroke-linejoin="miter" stroke-linecap="square" stroke-miterlimit="3"/>
        <path d=" M 21.998 25.231 C 21.998 23.022 23.791 21.228 26 21.228 C 28.209 21.228 30.002 23.022 30.002 25.231 C 30.002 27.439 28.209 29.233 26 29.233 C 23.791 29.233 21.998 27.439 21.998 25.231 Z " fill="rgb(87,87,87)" vector-effect="non-scaling-stroke" stroke-width="0.5" stroke="rgb(0,0,0)" stroke-linejoin="miter" stroke-linecap="square" stroke-miterlimit="3"/>
        <path class="color" d=" M 32.389 13.398 Q 30.072 10.544 26 9.101 Q 21.955 10.535 19.642 13.359 C 23.667 12.741 27.914 12.752 32.389 13.398 Z " vector-effect="non-scaling-stroke" stroke-width="0.5" stroke="rgb(0,0,0)" stroke-linejoin="miter" stroke-linecap="square" stroke-miterlimit="3"/>
        <path class="color" d=" M 34.974 18.871 Q 34.667 17.527 34.159 16.344 C 29.103 15.879 23.65 15.906 17.805 16.429 Q 17.318 17.587 17.02 18.897 C 23.123 18.25 29.104 18.238 34.974 18.871 Z " vector-effect="non-scaling-stroke" stroke-width="0.5" stroke="rgb(0,0,0)" stroke-linejoin="miter" stroke-linecap="square" stroke-miterlimit="3"/>
        <path class="color" d=" M 34.642 33.547 C 33.786 38.978 32.243 44.065 30.002 46.891 L 21.998 46.891 C 19.757 44.065 18.214 38.978 17.358 33.547 C 23.393 32.171 29.187 32.203 34.642 33.547 Z " vector-effect="non-scaling-stroke" stroke-width="0.5" stroke="rgb(0,0,0)" stroke-linejoin="miter" stroke-linecap="square" stroke-miterlimit="3"/>
        <path d=" M 24.154 2.343 C 24.154 1.326 24.98 0.5 25.997 0.5 C 27.014 0.5 27.84 1.326 27.84 2.343 C 27.84 3.361 27.014 4.187 25.997 4.187 C 24.98 4.187 24.154 3.361 24.154 2.343 Z " fill="rgb(223,223,135)" vector-effect="non-scaling-stroke" stroke-width="0.5" stroke="rgb(0,0,0)" stroke-linejoin="miter" stroke-linecap="square" stroke-miterlimit="3"/>
    </g>
    <g id="ship-7">
        <path d=" M 26 27.263 L 26 41.404 C 17.958 40.511 11.061 41.611 5.293 44.689 C 6.819 34.522 13.732 26.533 26 27.263 Z " fill="rgb(235,235,235)" vector-effect="non-scaling-stroke" stroke-width="0.5" stroke="rgb(0,0,0)" stroke-linejoin="miter" stroke-linecap="square" stroke-miterlimit="3"/>
        <path d=" M 26 27.263 L 26 41.404 C 34.042 40.511 40.939 41.611 46.707 44.689 C 45.181 34.522 38.268 26.533 26 27.263 Z " fill="rgb(235,235,235)" vector-effect="non-scaling-stroke" stroke-width="0.5" stroke="rgb(0,0,0)" stroke-linejoin="miter" stroke-linecap="square" stroke-miterlimit="3"/>
        <path d=" M 25.998 49.99 Q 20.886 49.99 17.919 51 Q 17.856 47.843 19.939 44.434 L 25.998 44.434 L 26 44.434 L 32.059 44.434 Q 34.142 47.843 34.079 51 Q 31.112 49.99 25.998 49.99 L 25.998 49.99 Z " fill="rgb(85,85,85)" vector-effect="non-scaling-stroke" stroke-width="0.5" stroke="rgb(0,0,0)" stroke-linejoin="miter" stroke-linecap="square" stroke-miterlimit="3"/>
        <path class="color" d=" M 15.899 15.649 C 22.675 12.279 29.414 12.284 36.101 15.649 L 36.101 42.608 C 36.101 43.757 35.177 44.818 34.039 44.976 C 28.819 45.703 22.09 45.708 17.953 45.027 C 16.819 44.841 15.899 43.757 15.899 42.608 L 15.899 15.649 Z " vector-effect="non-scaling-stroke" stroke-width="0.5" stroke="rgb(0,0,0)" stroke-linejoin="miter" stroke-linecap="square" stroke-miterlimit="3"/>
        <path class="color" d=" M 26 13.123 C 22.613 13.113 19.247 13.976 15.899 15.709 C 18.003 8.239 21.375 3.341 26 1 L 26 1 C 30.625 3.341 33.997 8.239 36.101 15.709 C 32.753 13.976 29.387 13.113 26 13.123 L 26 13.123 Z " vector-effect="non-scaling-stroke" stroke-width="0.5" stroke="rgb(0,0,0)" stroke-linejoin="miter" stroke-linecap="square" stroke-miterlimit="3"/>
        <path class="light" d=" M 26 13.123 C 22.613 13.113 19.247 13.976 15.899 15.709 C 18.003 8.239 21.375 3.341 26 1 L 26 1 C 30.625 3.341 33.997 8.239 36.101 15.709 C 32.753 13.976 29.387 13.113 26 13.123 L 26 13.123 Z " fill="rgb(255,255,255)" fill-opacity="0.5" vector-effect="non-scaling-stroke" stroke-width="0.5" stroke="rgb(0,0,0)" stroke-linejoin="miter" stroke-linecap="square" stroke-miterlimit="3"/>
        <path d=" M 19.434 24.276 C 19.434 20.652 22.376 17.71 26 17.71 C 29.624 17.71 32.566 20.652 32.566 24.276 C 32.566 27.9 29.624 30.842 26 30.842 C 22.376 30.842 19.434 27.9 19.434 24.276 Z " fill="rgb(235,235,235)" vector-effect="non-scaling-stroke" stroke-width="0.5" stroke="rgb(0,0,0)" stroke-linejoin="miter" stroke-linecap="square" stroke-miterlimit="3"/>
        <path d=" M 20.747 24.276 C 20.747 21.377 23.101 19.023 26 19.023 C 28.899 19.023 31.253 21.377 31.253 24.276 C 31.253 27.175 28.899 29.528 26 29.528 C 23.101 29.528 20.747 27.175 20.747 24.276 Z " fill="rgb(70,70,70)" vector-effect="non-scaling-stroke" stroke-width="0.5" stroke="rgb(0,0,0)" stroke-linejoin="miter" stroke-linecap="square" stroke-miterlimit="3"/>
    </g>
    <g id="ship-8">
        <path d=" M 7.565 27.902 Q 13.671 23.666 26.042 23.555 L 26.042 37.684 C 18.35 36.504 9.841 38.684 0.5 44.206 Q 1.458 32.138 7.565 27.902 Z " fill="rgb(232,232,232)" vector-effect="non-scaling-stroke" stroke-width="0.5" stroke="rgb(0,0,0)" stroke-linejoin="miter" stroke-linecap="square" stroke-miterlimit="3"/>
        <path d=" M 44.435 27.902 Q 38.329 23.666 25.958 23.555 L 25.958 37.684 C 33.65 36.504 42.159 38.684 51.5 44.206 Q 50.542 32.138 44.435 27.902 Z " fill="rgb(232,232,232)" vector-effect="non-scaling-stroke" stroke-width="0.5" stroke="rgb(0,0,0)" stroke-linejoin="miter" stroke-linecap="square" stroke-miterlimit="3"/>
        <path d=" M 26.042 40.401 L 26.042 40.401 L 20.607 40.401 C 19.627 44.265 19.078 47.339 18.977 49.64 C 20.861 49.997 23.21 50.173 26.042 50.183 L 26.042 50.183 C 28.873 50.173 31.223 49.997 33.107 49.64 C 33.005 47.339 32.456 44.265 31.476 40.401 L 26.042 40.401 Z " fill="rgb(70,70,70)" vector-effect="non-scaling-stroke" stroke-width="0.5" stroke="rgb(0,0,0)" stroke-linejoin="miter" stroke-linecap="square" stroke-miterlimit="3"/>
        <path class="color" d=" M 26.042 1.817 L 26.042 1.817 C 21.027 4 17.399 8.705 15.173 15.946 C 12.947 23.188 13.856 33.733 17.347 43.118 C 19.469 43.861 22.362 44.218 26.042 44.205 L 26.042 44.205 C 29.722 44.218 32.615 43.861 34.737 43.118 C 38.227 33.733 39.137 23.188 36.911 15.946 C 34.685 8.705 31.056 4 26.042 1.817 Z " vector-effect="non-scaling-stroke" stroke-width="0.5" stroke="rgb(0,0,0)" stroke-linejoin="miter" stroke-linecap="square" stroke-miterlimit="3"/>
        <path class="light" d=" M 14.254 20.294 C 14.454 18.75 14.76 17.291 15.173 15.946 C 17.399 8.705 21.027 4 26.042 1.817 L 26.042 1.817 C 31.056 4 34.685 8.705 36.911 15.946 C 37.324 17.291 37.629 18.75 37.83 20.294 C 29.971 21.743 22.118 21.748 14.254 20.294 Z " fill="rgb(255,255,255)" fill-opacity="0.5" vector-effect="non-scaling-stroke" stroke-width="0.5" stroke="rgb(0,0,0)" stroke-linejoin="miter" stroke-linecap="square" stroke-miterlimit="3"/>
        <path d=" M 25.958 1.835 C 22.918 3.169 20.389 5.433 18.377 8.633 C 20.957 10.289 23.483 11.787 25.958 12.142 L 25.958 12.124 C 28.433 11.769 30.959 10.27 33.54 8.615 C 31.527 5.415 28.998 3.151 25.958 1.817 L 25.958 1.835 Z " fill="rgb(93,93,93)" vector-effect="non-scaling-stroke" stroke-width="0.5" stroke="rgb(0,0,0)" stroke-linejoin="miter" stroke-linecap="square" stroke-miterlimit="3"/>
    </g>
</svg>